<mxfile host="Electron" modified="2024-01-15T02:14:18.305Z" agent="Mozilla/5.0 (Windows NT 10.0; Win64; x64) AppleWebKit/537.36 (KHTML, like Gecko) draw.io/21.6.5 Chrome/114.0.5735.243 Electron/25.3.1 Safari/537.36" etag="aHS0c5XtAc4E2cXcLKzm" version="21.6.5" type="device">
  <diagram name="PÃ¡gina-1" id="15zTdtoMW9P6-QUeW9Gj">
    <mxGraphModel dx="928" dy="562" grid="1" gridSize="10" guides="1" tooltips="1" connect="1" arrows="1" fold="1" page="1" pageScale="1" pageWidth="827" pageHeight="1169" math="0" shadow="0">
      <root>
        <mxCell id="0" />
        <mxCell id="1" parent="0" />
        <mxCell id="Z39Z_3SRcvqseODND6B9-5" style="edgeStyle=orthogonalEdgeStyle;rounded=0;orthogonalLoop=1;jettySize=auto;html=1;entryX=0;entryY=0.5;entryDx=0;entryDy=0;exitX=0.486;exitY=1.012;exitDx=0;exitDy=0;exitPerimeter=0;strokeColor=#000000;" parent="1" source="Z39Z_3SRcvqseODND6B9-3" target="hHVtixE5jx1yokHuHq7w-11" edge="1">
          <mxGeometry relative="1" as="geometry">
            <mxPoint x="140" y="170.01999999999998" as="targetPoint" />
          </mxGeometry>
        </mxCell>
        <mxCell id="hHVtixE5jx1yokHuHq7w-14" style="edgeStyle=orthogonalEdgeStyle;rounded=0;orthogonalLoop=1;jettySize=auto;html=1;entryX=0;entryY=0.057;entryDx=0;entryDy=0;entryPerimeter=0;exitX=0.479;exitY=1.023;exitDx=0;exitDy=0;exitPerimeter=0;" edge="1" parent="1" source="Z39Z_3SRcvqseODND6B9-3" target="hHVtixE5jx1yokHuHq7w-15">
          <mxGeometry relative="1" as="geometry">
            <mxPoint x="139.34000000000015" y="275.56000000000006" as="targetPoint" />
          </mxGeometry>
        </mxCell>
        <mxCell id="Z39Z_3SRcvqseODND6B9-3" value="" style="html=1;verticalLabelPosition=bottom;align=center;labelBackgroundColor=#ffffff;verticalAlign=top;strokeWidth=2;strokeColor=#0080F0;shadow=0;dashed=0;shape=mxgraph.ios7.icons.folder;aspect=fixed;" parent="1" vertex="1">
          <mxGeometry x="80" y="60" width="40" height="26" as="geometry" />
        </mxCell>
        <mxCell id="Z39Z_3SRcvqseODND6B9-4" value="&lt;div style=&quot;color: rgb(204, 204, 204); background-color: rgb(31, 31, 31); font-family: Consolas, &amp;quot;Courier New&amp;quot;, monospace; font-weight: normal; font-size: 14px; line-height: 19px;&quot;&gt;models&lt;/div&gt;" style="text;whiteSpace=wrap;html=1;" parent="1" vertex="1">
          <mxGeometry x="140" y="60" width="450" height="40" as="geometry" />
        </mxCell>
        <mxCell id="Z39Z_3SRcvqseODND6B9-7" value="&lt;div style=&quot;color: rgb(204, 204, 204); background-color: rgb(31, 31, 31); font-family: Consolas, &amp;quot;Courier New&amp;quot;, monospace; font-weight: normal; font-size: 14px; line-height: 19px;&quot;&gt;&lt;div&gt;index.ts&lt;/div&gt;&lt;/div&gt;" style="text;whiteSpace=wrap;html=1;" parent="1" vertex="1">
          <mxGeometry x="140" y="120" width="450" height="40" as="geometry" />
        </mxCell>
        <mxCell id="hHVtixE5jx1yokHuHq7w-11" value="&lt;div style=&quot;color: rgb(204, 204, 204); background-color: rgb(31, 31, 31); font-family: Consolas, &amp;quot;Courier New&amp;quot;, monospace; font-weight: normal; font-size: 14px; line-height: 19px;&quot;&gt;&lt;div&gt;&lt;span style=&quot;color: #c586c0;&quot;&gt;export&lt;/span&gt;&lt;span style=&quot;color: #cccccc;&quot;&gt; &lt;/span&gt;&lt;span style=&quot;color: #569cd6;&quot;&gt;*&lt;/span&gt;&lt;span style=&quot;color: #cccccc;&quot;&gt; &lt;/span&gt;&lt;span style=&quot;color: #c586c0;&quot;&gt;from&lt;/span&gt;&lt;span style=&quot;color: #cccccc;&quot;&gt; &lt;/span&gt;&lt;span style=&quot;color: #ce9178;&quot;&gt;&#39;./entry&#39;&lt;/span&gt;&lt;/div&gt;&lt;/div&gt;" style="text;whiteSpace=wrap;html=1;strokeColor=default;" vertex="1" parent="1">
          <mxGeometry x="140" y="160" width="660" height="40" as="geometry" />
        </mxCell>
        <mxCell id="hHVtixE5jx1yokHuHq7w-12" value="&lt;div style=&quot;color: rgb(204, 204, 204); background-color: rgb(31, 31, 31); font-family: Consolas, &amp;quot;Courier New&amp;quot;, monospace; font-weight: normal; font-size: 14px; line-height: 19px;&quot;&gt;&lt;div&gt;Entry.ts&lt;/div&gt;&lt;/div&gt;" style="text;whiteSpace=wrap;html=1;" vertex="1" parent="1">
          <mxGeometry x="140" y="220" width="450" height="40" as="geometry" />
        </mxCell>
        <mxCell id="hHVtixE5jx1yokHuHq7w-15" value="&lt;div style=&quot;color: rgb(204, 204, 204); background-color: rgb(31, 31, 31); font-family: Consolas, &amp;quot;Courier New&amp;quot;, monospace; font-weight: normal; font-size: 14px; line-height: 19px;&quot;&gt;&lt;div&gt;&lt;span style=&quot;color: #c586c0;&quot;&gt;import&lt;/span&gt;&lt;span style=&quot;color: #cccccc;&quot;&gt; &lt;/span&gt;&lt;span style=&quot;color: #9cdcfe;&quot;&gt;mongoose&lt;/span&gt;&lt;span style=&quot;color: #cccccc;&quot;&gt;, { &lt;/span&gt;&lt;span style=&quot;color: #9cdcfe;&quot;&gt;Model&lt;/span&gt;&lt;span style=&quot;color: #cccccc;&quot;&gt;, &lt;/span&gt;&lt;span style=&quot;color: #9cdcfe;&quot;&gt;Schema&lt;/span&gt;&lt;span style=&quot;color: #cccccc;&quot;&gt; } &lt;/span&gt;&lt;span style=&quot;color: #c586c0;&quot;&gt;from&lt;/span&gt;&lt;span style=&quot;color: #cccccc;&quot;&gt; &lt;/span&gt;&lt;span style=&quot;color: #ce9178;&quot;&gt;&quot;mongoose&quot;&lt;/span&gt;&lt;span style=&quot;color: #cccccc;&quot;&gt;;&lt;/span&gt;&lt;/div&gt;&lt;div&gt;&lt;span style=&quot;color: #c586c0;&quot;&gt;import&lt;/span&gt;&lt;span style=&quot;color: #cccccc;&quot;&gt; { &lt;/span&gt;&lt;span style=&quot;color: #9cdcfe;&quot;&gt;Entry&lt;/span&gt;&lt;span style=&quot;color: #cccccc;&quot;&gt; } &lt;/span&gt;&lt;span style=&quot;color: #c586c0;&quot;&gt;from&lt;/span&gt;&lt;span style=&quot;color: #cccccc;&quot;&gt; &lt;/span&gt;&lt;span style=&quot;color: #ce9178;&quot;&gt;&quot;../interfaces&quot;&lt;/span&gt;&lt;span style=&quot;color: #cccccc;&quot;&gt;;&lt;/span&gt;&lt;/div&gt;&lt;br&gt;&lt;div&gt;&lt;span style=&quot;color: #c586c0;&quot;&gt;export&lt;/span&gt;&lt;span style=&quot;color: #cccccc;&quot;&gt; &lt;/span&gt;&lt;span style=&quot;color: #569cd6;&quot;&gt;interface&lt;/span&gt;&lt;span style=&quot;color: #cccccc;&quot;&gt; &lt;/span&gt;&lt;span style=&quot;color: #4ec9b0;&quot;&gt;IEntry&lt;/span&gt;&lt;span style=&quot;color: #cccccc;&quot;&gt; &lt;/span&gt;&lt;span style=&quot;color: #569cd6;&quot;&gt;extends&lt;/span&gt;&lt;span style=&quot;color: #cccccc;&quot;&gt; &lt;/span&gt;&lt;span style=&quot;color: #4ec9b0;&quot;&gt;Entry&lt;/span&gt;&lt;span style=&quot;color: #cccccc;&quot;&gt; {}&lt;/span&gt;&lt;/div&gt;&lt;br&gt;&lt;div&gt;&lt;span style=&quot;color: #569cd6;&quot;&gt;const&lt;/span&gt;&lt;span style=&quot;color: #cccccc;&quot;&gt; &lt;/span&gt;&lt;span style=&quot;color: #4fc1ff;&quot;&gt;entrySchema&lt;/span&gt;&lt;span style=&quot;color: #cccccc;&quot;&gt; &lt;/span&gt;&lt;span style=&quot;color: #d4d4d4;&quot;&gt;=&lt;/span&gt;&lt;span style=&quot;color: #cccccc;&quot;&gt; &lt;/span&gt;&lt;span style=&quot;color: #569cd6;&quot;&gt;new&lt;/span&gt;&lt;span style=&quot;color: #cccccc;&quot;&gt; &lt;/span&gt;&lt;span style=&quot;color: #4ec9b0;&quot;&gt;Schema&lt;/span&gt;&lt;span style=&quot;color: #cccccc;&quot;&gt;({&lt;/span&gt;&lt;/div&gt;&lt;div&gt;&lt;span style=&quot;color: #cccccc;&quot;&gt;&amp;nbsp; &amp;nbsp; &amp;nbsp;&lt;/span&gt;&lt;span style=&quot;color: #9cdcfe;&quot;&gt;description&lt;/span&gt;&lt;span style=&quot;color: #9cdcfe;&quot;&gt;:&lt;/span&gt;&lt;span style=&quot;color: #cccccc;&quot;&gt; { &lt;/span&gt;&lt;span style=&quot;color: #4ec9b0;&quot;&gt;type&lt;/span&gt;&lt;span style=&quot;color: #9cdcfe;&quot;&gt;:&lt;/span&gt;&lt;span style=&quot;color: #cccccc;&quot;&gt; &lt;/span&gt;&lt;span style=&quot;color: #4ec9b0;&quot;&gt;String&lt;/span&gt;&lt;span style=&quot;color: #cccccc;&quot;&gt;, &lt;/span&gt;&lt;span style=&quot;color: #9cdcfe;&quot;&gt;required&lt;/span&gt;&lt;span style=&quot;color: #9cdcfe;&quot;&gt;:&lt;/span&gt;&lt;span style=&quot;color: #cccccc;&quot;&gt; &lt;/span&gt;&lt;span style=&quot;color: #569cd6;&quot;&gt;true&lt;/span&gt;&lt;span style=&quot;color: #cccccc;&quot;&gt; },&lt;/span&gt;&lt;/div&gt;&lt;div&gt;&lt;span style=&quot;color: #cccccc;&quot;&gt;&amp;nbsp; &amp;nbsp; &amp;nbsp;&lt;/span&gt;&lt;span style=&quot;color: #9cdcfe;&quot;&gt;createdAt&lt;/span&gt;&lt;span style=&quot;color: #9cdcfe;&quot;&gt;:&lt;/span&gt;&lt;span style=&quot;color: #cccccc;&quot;&gt; { &lt;/span&gt;&lt;span style=&quot;color: #4ec9b0;&quot;&gt;type&lt;/span&gt;&lt;span style=&quot;color: #9cdcfe;&quot;&gt;:&lt;/span&gt;&lt;span style=&quot;color: #cccccc;&quot;&gt; &lt;/span&gt;&lt;span style=&quot;color: #4ec9b0;&quot;&gt;Number&lt;/span&gt;&lt;span style=&quot;color: #cccccc;&quot;&gt; },&lt;/span&gt;&lt;/div&gt;&lt;div&gt;&lt;span style=&quot;color: #cccccc;&quot;&gt;&amp;nbsp; &amp;nbsp; &amp;nbsp;&lt;/span&gt;&lt;span style=&quot;color: #9cdcfe;&quot;&gt;status&lt;/span&gt;&lt;span style=&quot;color: #9cdcfe;&quot;&gt;:&lt;/span&gt;&lt;span style=&quot;color: #cccccc;&quot;&gt; {&lt;/span&gt;&lt;/div&gt;&lt;div&gt;&lt;span style=&quot;color: #cccccc;&quot;&gt;&amp;nbsp; &amp;nbsp; &amp;nbsp; &amp;nbsp; &lt;/span&gt;&lt;span style=&quot;color: #4ec9b0;&quot;&gt;type&lt;/span&gt;&lt;span style=&quot;color: #9cdcfe;&quot;&gt;:&lt;/span&gt;&lt;span style=&quot;color: #cccccc;&quot;&gt; &lt;/span&gt;&lt;span style=&quot;color: #4ec9b0;&quot;&gt;String&lt;/span&gt;&lt;span style=&quot;color: #cccccc;&quot;&gt;,&lt;/span&gt;&lt;/div&gt;&lt;div&gt;&lt;span style=&quot;color: #cccccc;&quot;&gt;&amp;nbsp; &amp;nbsp; &amp;nbsp; &amp;nbsp; &lt;/span&gt;&lt;span style=&quot;color: #9cdcfe;&quot;&gt;enum&lt;/span&gt;&lt;span style=&quot;color: #9cdcfe;&quot;&gt;:&lt;/span&gt;&lt;span style=&quot;color: #cccccc;&quot;&gt; {&lt;/span&gt;&lt;/div&gt;&lt;div&gt;&lt;span style=&quot;color: #cccccc;&quot;&gt;&amp;nbsp; &amp;nbsp; &amp;nbsp; &amp;nbsp; &amp;nbsp; &amp;nbsp; &lt;/span&gt;&lt;span style=&quot;color: #9cdcfe;&quot;&gt;values&lt;/span&gt;&lt;span style=&quot;color: #9cdcfe;&quot;&gt;:&lt;/span&gt;&lt;span style=&quot;color: #cccccc;&quot;&gt; [&lt;/span&gt;&lt;span style=&quot;color: #ce9178;&quot;&gt;&#39;pending&#39;&lt;/span&gt;&lt;span style=&quot;color: #cccccc;&quot;&gt;, &lt;/span&gt;&lt;span style=&quot;color: #ce9178;&quot;&gt;&#39;in-progress&#39;&lt;/span&gt;&lt;span style=&quot;color: #cccccc;&quot;&gt;, &lt;/span&gt;&lt;span style=&quot;color: #ce9178;&quot;&gt;&#39;finished&#39;&lt;/span&gt;&lt;span style=&quot;color: #cccccc;&quot;&gt; ],&lt;/span&gt;&lt;/div&gt;&lt;div&gt;&lt;span style=&quot;color: #cccccc;&quot;&gt;&amp;nbsp; &amp;nbsp; &amp;nbsp; &amp;nbsp; &amp;nbsp; &amp;nbsp; &lt;/span&gt;&lt;span style=&quot;color: #9cdcfe;&quot;&gt;message&lt;/span&gt;&lt;span style=&quot;color: #9cdcfe;&quot;&gt;:&lt;/span&gt;&lt;span style=&quot;color: #cccccc;&quot;&gt; &lt;/span&gt;&lt;span style=&quot;color: #ce9178;&quot;&gt;&#39;{VALUE} no es un estado permitido&#39;&lt;/span&gt;&lt;/div&gt;&lt;div&gt;&lt;span style=&quot;color: #cccccc;&quot;&gt;&amp;nbsp; &amp;nbsp; &amp;nbsp; &amp;nbsp; },&lt;/span&gt;&lt;/div&gt;&lt;div&gt;&lt;span style=&quot;color: #cccccc;&quot;&gt;&amp;nbsp; &amp;nbsp; &amp;nbsp; &amp;nbsp; &lt;/span&gt;&lt;span style=&quot;color: #9cdcfe;&quot;&gt;default&lt;/span&gt;&lt;span style=&quot;color: #9cdcfe;&quot;&gt;:&lt;/span&gt;&lt;span style=&quot;color: #cccccc;&quot;&gt; &lt;/span&gt;&lt;span style=&quot;color: #ce9178;&quot;&gt;&#39;pending&#39;&lt;/span&gt;&lt;span style=&quot;color: #cccccc;&quot;&gt;,&lt;/span&gt;&lt;/div&gt;&lt;div&gt;&lt;span style=&quot;color: #cccccc;&quot;&gt;&amp;nbsp; &amp;nbsp; &amp;nbsp;}&lt;/span&gt;&lt;/div&gt;&lt;br&gt;&lt;div&gt;&lt;span style=&quot;color: #cccccc;&quot;&gt;});&lt;/span&gt;&lt;/div&gt;&lt;br&gt;&lt;div&gt;&lt;span style=&quot;color: #569cd6;&quot;&gt;const&lt;/span&gt;&lt;span style=&quot;color: #cccccc;&quot;&gt; &lt;/span&gt;&lt;span style=&quot;color: #4ec9b0;&quot;&gt;EntryModel&lt;/span&gt;&lt;span style=&quot;color: #d4d4d4;&quot;&gt;:&lt;/span&gt;&lt;span style=&quot;color: #cccccc;&quot;&gt; &lt;/span&gt;&lt;span style=&quot;color: #4ec9b0;&quot;&gt;Model&lt;/span&gt;&lt;span style=&quot;color: #cccccc;&quot;&gt;&amp;lt;&lt;/span&gt;&lt;span style=&quot;color: #4ec9b0;&quot;&gt;IEntry&lt;/span&gt;&lt;span style=&quot;color: #cccccc;&quot;&gt;&amp;gt; &lt;/span&gt;&lt;span style=&quot;color: #d4d4d4;&quot;&gt;=&lt;/span&gt;&lt;span style=&quot;color: #cccccc;&quot;&gt; &lt;/span&gt;&lt;span style=&quot;color: #4ec9b0;&quot;&gt;mongoose&lt;/span&gt;&lt;span style=&quot;color: #cccccc;&quot;&gt;.&lt;/span&gt;&lt;span style=&quot;color: #4fc1ff;&quot;&gt;models&lt;/span&gt;&lt;span style=&quot;color: #cccccc;&quot;&gt;.&lt;/span&gt;&lt;span style=&quot;color: #9cdcfe;&quot;&gt;Entry&lt;/span&gt;&lt;span style=&quot;color: #cccccc;&quot;&gt; &lt;/span&gt;&lt;span style=&quot;color: #d4d4d4;&quot;&gt;||&lt;/span&gt;&lt;span style=&quot;color: #cccccc;&quot;&gt; &lt;/span&gt;&lt;span style=&quot;color: #4ec9b0;&quot;&gt;mongoose&lt;/span&gt;&lt;span style=&quot;color: #cccccc;&quot;&gt;.&lt;/span&gt;&lt;span style=&quot;color: #dcdcaa;&quot;&gt;model&lt;/span&gt;&lt;span style=&quot;color: #cccccc;&quot;&gt;(&lt;/span&gt;&lt;span style=&quot;color: #ce9178;&quot;&gt;&#39;Entry&#39;&lt;/span&gt;&lt;span style=&quot;color: #cccccc;&quot;&gt;, &lt;/span&gt;&lt;span style=&quot;color: #4fc1ff;&quot;&gt;entrySchema&lt;/span&gt;&lt;span style=&quot;color: #cccccc;&quot;&gt;);&lt;/span&gt;&lt;/div&gt;&lt;br&gt;&lt;div&gt;&lt;span style=&quot;color: #c586c0;&quot;&gt;export&lt;/span&gt;&lt;span style=&quot;color: #cccccc;&quot;&gt; &lt;/span&gt;&lt;span style=&quot;color: #c586c0;&quot;&gt;default&lt;/span&gt;&lt;span style=&quot;color: #cccccc;&quot;&gt; &lt;/span&gt;&lt;span style=&quot;color: #4ec9b0;&quot;&gt;EntryModel&lt;/span&gt;&lt;span style=&quot;color: #cccccc;&quot;&gt;;&lt;/span&gt;&lt;/div&gt;&lt;/div&gt;" style="text;whiteSpace=wrap;html=1;strokeColor=default;" vertex="1" parent="1">
          <mxGeometry x="140" y="250" width="660" height="450" as="geometry" />
        </mxCell>
      </root>
    </mxGraphModel>
  </diagram>
</mxfile>
